<?xml version="1.0" standalone="no"?>
<!DOCTYPE svg PUBLIC "-//W3C//DTD SVG 20010904//EN"
 "http://www.w3.org/TR/2001/REC-SVG-20010904/DTD/svg10.dtd">
<svg version="1.0" xmlns="http://www.w3.org/2000/svg"
 width="435.000000pt" height="400.000000pt" viewBox="0 0 435.000000 400.000000"
 preserveAspectRatio="xMidYMid meet">

<g transform="translate(0.000000,400.000000) scale(0.100000,-0.100000)"
fill="#000000" stroke="none">
<path d="M0 2000 l0 -2000 2175 0 2175 0 0 2000 0 2000 -2175 0 -2175 0 0
-2000z m2478 1449 c317 -182 592 -343 611 -357 18 -13 42 -43 52 -66 17 -38
19 -74 19 -544 l0 -503 -37 -34 c-40 -36 -68 -48 -40 -17 15 17 17 67 17 521
0 476 -1 504 -19 540 -11 20 -25 42 -33 48 -7 6 -103 62 -213 125 -110 64
-376 217 -590 340 -215 124 -400 228 -412 232 -13 4 -27 1 -37 -10 -15 -14
-16 -66 -14 -534 2 -285 0 -513 -4 -507 -4 7 -8 240 -8 518 0 389 3 509 13
521 17 23 78 58 100 58 10 0 278 -149 595 -331z m-198 -26 c206 -119 464 -267
573 -330 l197 -114 0 -505 0 -505 -47 26 c-27 14 -300 171 -608 348 l-560 323
-3 508 -2 508 37 -22 c21 -12 207 -119 413 -237z m-369 -859 c43 -25 79 -48
79 -51 0 -6 -108 55 -147 84 -18 13 -38 34 -43 46 -8 16 -5 14 11 -6 11 -15
57 -48 100 -73z m149 -90 c0 -2 -13 2 -30 11 -16 9 -30 18 -30 21 0 2 14 -2
30 -11 17 -9 30 -18 30 -21z m70 -40 c0 -2 -13 2 -30 11 -16 9 -30 18 -30 21
0 2 14 -2 30 -11 17 -9 30 -18 30 -21z m108 -59 c45 -26 82 -49 82 -51 0 -3
-4 -3 -9 1 -5 3 -12 -3 -14 -12 -4 -15 -5 -15 -6 3 -1 14 -23 32 -76 63 -41
23 -75 45 -75 47 0 3 3 3 8 1 4 -2 44 -26 90 -52z m152 -91 c0 -2 -13 2 -30
11 -16 9 -30 18 -30 21 0 2 14 -2 30 -11 17 -9 30 -18 30 -21z m-174 -20 c18
-14 18 -14 -6 -3 -31 14 -36 19 -24 19 6 0 19 -7 30 -16z m244 -20 c0 -2 -13
2 -30 11 -16 9 -30 18 -30 21 0 2 14 -2 30 -11 17 -9 30 -18 30 -21z m-711
-39 c63 -36 120 -64 127 -61 7 3 11 0 9 -7 -3 -7 55 -45 137 -92 78 -44 263
-150 412 -236 199 -115 274 -154 284 -146 9 7 11 6 7 -5 -4 -9 4 -20 20 -28
50 -27 31 -48 -145 -157 -90 -57 -174 -103 -185 -103 -12 0 -93 42 -182 93
-788 453 -973 563 -973 578 0 9 6 21 13 27 34 28 333 202 346 202 9 0 67 -29
130 -65z m537 0 c-9 -14 -31 -31 -49 -40 -17 -8 -24 -10 -13 -3 10 7 28 21 40
30 l21 18 -25 21 c-22 17 -22 19 -3 10 29 -15 33 -14 34 7 1 16 2 16 6 -1 3
-10 -3 -29 -11 -42z m282 -20 c45 -26 82 -49 82 -52 0 -3 -20 7 -44 21 -25 14
-47 26 -50 26 -3 0 -6 -14 -6 -30 0 -69 -53 -134 -139 -170 -28 -11 -36 -8
-140 51 -115 66 -133 88 -88 109 20 10 20 10 4 -3 -21 -18 -22 -17 104 -90
l97 -55 60 38 c48 31 63 46 71 75 10 36 4 105 -8 105 -4 0 -16 7 -27 16 -26
21 -14 15 84 -41z m-598 10 c0 -2 -10 -9 -22 -15 -22 -11 -22 -10 -4 4 21 17
26 19 26 11z m750 -101 c0 -2 -13 2 -30 11 -16 9 -30 18 -30 21 0 2 14 -2 30
-11 17 -9 30 -18 30 -21z m70 -40 c0 -2 -13 2 -30 11 -16 9 -30 18 -30 21 0 2
14 -2 30 -11 17 -9 30 -18 30 -21z m70 -40 c0 -2 -13 2 -30 11 -16 9 -30 18
-30 21 0 2 14 -2 30 -11 17 -9 30 -18 30 -21z m123 -64 c3 0 3 10 -1 23 -5 20
-4 21 11 8 13 -10 14 -17 6 -27 -8 -10 -4 -16 18 -28 15 -8 24 -15 20 -16 -10
0 -167 90 -167 97 0 2 24 -9 54 -26 29 -17 56 -31 59 -31z m-13 39 c0 -5 -4
-9 -10 -9 -5 0 -10 7 -10 16 0 8 5 12 10 9 6 -3 10 -10 10 -16z m10 -385 c0
-2 -9 0 -20 6 -11 6 -20 13 -20 16 0 2 9 0 20 -6 11 -6 20 -13 20 -16z m-9
-47 l-24 -22 19 27 c10 14 21 24 23 22 3 -3 -6 -15 -18 -27z m-279 -159 c9 -1
14 -6 12 -10 -3 -4 5 -12 16 -18 25 -13 26 -51 3 -73 -42 -37 -159 -97 -191
-97 -36 0 -107 32 -114 52 -11 29 15 59 94 108 74 45 87 51 123 45 22 -3 48
-6 57 -7z m-1323 -618 c68 -71 127 -130 131 -130 4 0 7 10 7 23 1 12 1 68 2
125 l1 102 30 0 30 0 -2 -182 -3 -183 -23 -3 c-19 -3 -49 23 -152 130 l-129
133 1 -130 1 -130 -32 -3 -31 -3 0 178 c0 176 5 203 34 203 6 0 67 -58 135
-130z m-712 98 c19 -18 23 -32 23 -80 0 -33 -7 -72 -15 -87 -13 -26 -67 -61
-95 -61 -6 0 18 -25 54 -56 36 -31 66 -58 66 -60 0 -2 -22 -4 -48 -4 -45 0
-54 5 -118 60 -47 41 -77 60 -96 60 -20 0 -25 4 -23 18 2 9 4 25 4 35 1 15 12
17 84 17 94 0 118 11 123 56 7 63 4 65 -122 63 l-114 -1 0 -154 0 -154 -35 0
-35 0 0 178 c0 98 3 182 7 185 3 4 76 7 162 7 145 0 156 -1 178 -22z m457 6
c3 -9 6 -92 6 -185 l0 -169 -35 0 c-35 0 -35 0 -35 45 l0 45 -120 0 -120 0 0
-45 c0 -43 -1 -45 -30 -45 l-30 0 0 122 c0 111 2 125 25 163 39 67 86 85 221
85 93 0 113 -3 118 -16z m900 0 c3 -9 6 -92 6 -185 l0 -169 -35 0 c-35 0 -35
0 -35 45 l0 45 -120 0 -120 0 0 -45 c0 -43 -1 -45 -30 -45 l-30 0 0 122 c0
111 2 125 25 163 39 67 86 85 221 85 93 0 113 -3 118 -16z m180 -110 c33 -68
62 -127 66 -129 4 -3 36 54 71 125 l63 130 38 0 38 0 -38 -77 c-22 -43 -63
-126 -91 -185 -51 -105 -63 -120 -89 -110 -12 4 -114 198 -167 318 l-24 54 37
0 37 0 59 -126z m656 96 l0 -29 -137 -3 -138 -3 0 -112 c0 -61 3 -114 6 -117
10 -10 54 -15 162 -15 l107 -1 0 -30 0 -30 -141 0 -141 0 -29 29 -29 29 0 150
c0 82 3 152 7 155 3 4 80 7 170 7 l163 0 0 -30z m395 24 c23 -9 45 -57 45
-101 0 -58 -28 -105 -78 -129 l-43 -20 66 -57 67 -57 -52 0 c-49 0 -56 3 -122
60 -44 38 -78 60 -94 60 -21 0 -24 5 -24 35 l0 35 88 0 c105 0 125 13 120 77
l-3 38 -115 0 -115 0 -3 -152 -3 -153 -34 0 -35 0 0 173 c0 121 4 177 12 185
13 13 291 18 323 6z m435 -24 l0 -30 -107 -1 c-131 -1 -157 -7 -161 -37 -7
-44 13 -52 120 -52 141 0 178 -23 178 -110 0 -94 -32 -110 -223 -110 l-144 0
5 29 4 29 134 4 c110 2 136 6 150 20 15 14 16 22 6 43 -11 24 -15 25 -107 25
-116 0 -158 15 -181 63 -23 48 -12 98 27 131 29 25 35 26 165 26 l134 0 0 -30z
m430 0 l0 -30 -135 0 -135 0 0 -120 c0 -107 2 -120 18 -122 9 0 22 -2 27 -3 6
-2 58 -3 118 -4 l107 -1 0 -30 0 -30 -141 0 -141 0 -29 29 -29 29 0 140 c0 77
3 147 6 156 5 14 30 16 170 16 l164 0 0 -30z m-1290 -155 l0 -35 -110 0 -110
0 0 35 0 35 110 0 110 0 0 -35z m1260 0 l0 -35 -105 0 -105 0 0 35 0 35 105 0
105 0 0 -35z m-2538 -402 c24 -22 23 -58 -3 -82 l-21 -20 21 -29 c24 -34 26
-42 11 -42 -6 0 -20 16 -31 35 -17 29 -27 35 -55 35 -32 0 -34 -2 -34 -35 0
-19 -4 -35 -10 -35 -6 0 -10 38 -10 95 l0 95 57 0 c38 0 62 -5 75 -17z m683
-30 c10 -27 25 -64 33 -83 l14 -35 32 79 c17 44 38 82 45 84 7 2 12 0 10 -4
-2 -5 -20 -49 -39 -97 -22 -55 -40 -86 -48 -85 -12 3 -82 157 -82 180 0 24 20
2 35 -39z m-487 -6 c9 4 12 -14 12 -66 0 -41 -4 -71 -10 -71 -5 0 -10 5 -10
12 0 9 -3 9 -12 0 -21 -21 -65 -14 -87 14 -48 61 1 137 74 113 11 -3 26 -4 33
-2z m126 3 c30 11 69 -8 76 -39 7 -32 0 -101 -11 -101 -5 0 -9 25 -9 55 0 43
-4 56 -19 65 -25 13 -27 13 -45 -6 -10 -10 -16 -33 -16 -65 0 -27 -4 -49 -10
-49 -11 0 -14 133 -3 144 4 4 9 3 11 -3 2 -6 12 -7 26 -1z m264 -3 c9 4 12
-14 12 -66 0 -41 -4 -71 -10 -71 -5 0 -10 5 -10 12 0 9 -3 9 -12 0 -21 -21
-65 -14 -87 14 -24 31 -26 49 -8 84 13 27 51 41 82 30 11 -4 26 -5 33 -3z
m392 -30 c8 -14 12 -29 9 -32 -4 -3 -28 -6 -55 -7 -60 -1 -67 -4 -54 -29 12
-21 59 -26 78 -7 6 6 15 8 19 4 12 -11 -27 -36 -57 -36 -54 0 -86 61 -59 111
23 44 93 42 119 -4z m140 30 c0 -7 -10 -17 -22 -22 -19 -8 -24 -19 -26 -62 -3
-58 -21 -73 -23 -20 -3 79 7 131 18 100 4 -10 10 -9 26 2 26 18 27 18 27 2z
m151 -13 c15 -18 -3 -19 -30 -2 -22 13 -51 5 -51 -16 0 -8 16 -18 36 -23 67
-15 72 -74 8 -81 -30 -3 -74 21 -62 34 4 4 14 1 22 -5 19 -16 61 -10 61 8 0 8
-13 19 -30 24 -42 14 -56 27 -53 51 5 34 73 41 99 10z m182 -2 c9 -8 17 -23
17 -34 0 -15 -8 -18 -49 -18 -53 0 -70 -12 -51 -35 15 -18 52 -19 68 -3 6 6
15 8 19 4 12 -12 -27 -36 -58 -36 -18 0 -35 9 -48 26 -58 74 30 157 102 96z"/>
<path d="M891 827 c-42 -15 -70 -50 -78 -100 l-6 -37 122 0 121 0 0 75 0 75
-62 -1 c-35 0 -78 -5 -97 -12z"/>
<path d="M1790 827 c-40 -14 -80 -68 -80 -108 l0 -29 120 0 121 0 -3 73 -3 72
-60 2 c-33 1 -76 -3 -95 -10z"/>
<path d="M1430 270 c0 -38 2 -40 29 -40 45 0 81 17 81 38 0 29 -21 42 -67 42
l-43 0 0 -40z"/>
<path d="M1650 250 c-25 -25 -26 -52 -2 -73 22 -20 53 -22 70 -5 18 18 14 63
-6 81 -24 22 -38 21 -62 -3z"/>
<path d="M2040 250 c-25 -25 -26 -52 -2 -73 22 -20 53 -22 70 -5 18 18 14 63
-6 81 -24 22 -38 21 -62 -3z"/>
<path d="M2432 254 c-30 -21 -19 -34 29 -32 43 1 52 20 20 38 -25 13 -22 13
-49 -6z"/>
<path d="M2915 257 c-27 -21 -9 -38 36 -35 44 2 47 7 21 31 -22 21 -33 21 -57
4z"/>
</g>
</svg>
